<?xml version="1.0" standalone="no"?>
<svg xmlns="http://www.w3.org/2000/svg" viewBox="0 0 96 74" width="96" height="74"><g fill="#73a4e1" color="#73a4e1" transform="translate(25.652 0) scale(0.44) "><svg width="100.0" height="100.0" x="0.0" y="0.0" viewBox="0 0 100 100"><path d="M81.762,79.508V9.886c0-0.553-0.447-1-1-1H26.034c-3.587,0-6.506,2.919-6.506,6.506v69.216c0,0.069,0.021,0.498,0.028,0.545  c0.278,3.333,3.075,5.962,6.478,5.962h54.728c0.383,0,0.731-0.221,0.898-0.565c0.167-0.346,0.121-0.757-0.116-1.058  c-0.133-0.169-3.217-4.182,0.066-9.455C81.709,79.878,81.762,79.694,81.762,79.508z M26.034,10.886h53.728v67.626H26.033  c-1.749,0-3.335,0.697-4.505,1.823V15.392C21.528,12.907,23.55,10.886,26.034,10.886z M26.034,89.114  c-2.415,0-4.376-1.914-4.485-4.303c0.109-2.387,2.07-4.3,4.484-4.3h53.066c-1.659,3.68-0.864,6.808-0.054,8.603  C79.045,89.114,26.034,89.114,26.034,89.114z M47.989,82.969H28.233c-0.553,0-1,0.447-1,1s0.447,1,1,1h19.756c0.553,0,1-0.447,1-1  S48.542,82.969,47.989,82.969z M64.625,82.969H53.059c-0.553,0-1,0.447-1,1s0.447,1,1,1h11.566c0.553,0,1-0.447,1-1  S65.178,82.969,64.625,82.969z M35.611,46.706v8.237c0,0.553,0.447,1,1,1h25.374c0.553,0,1-0.447,1-1v-8.216  c7.778-0.593,12.52-7.945,12.52-13.293c0-9.455-6.621-13.688-13.183-13.688c-4.072,0-6.804,1.226-8.027,1.923  c-1.08-0.896-3.554-2.427-7.853-2.427c-6.045,0-9.012,4.648-9.887,6.33c-3.919,0.29-10.387,2.739-10.387,10.466  C26.169,43.341,32.075,46.234,35.611,46.706z M60.985,53.943H37.611v-7.158h23.374V53.943z M37.218,27.544  c0.397-0.009,0.754-0.251,0.905-0.618c0.023-0.057,2.419-5.683,8.319-5.683c4.935,0,6.879,2.231,6.953,2.319  c0.341,0.417,0.95,0.489,1.38,0.166c0.026-0.02,2.7-1.981,7.547-1.981c5.158,0,11.183,3.061,11.183,11.688  c0,4.328-3.663,10.2-9.731,11.19c2.574-1.832,4.192-4.465,4.713-6.838c0.118-0.54-0.223-1.073-0.762-1.191  c-0.539-0.116-1.073,0.222-1.191,0.762c-0.484,2.203-2.846,6.579-8.317,7.428H44.968c-3.071-0.656-4.079-3.97-4.079-5.05  c0-0.553-0.447-1-1-1s-1,0.447-1,1c0,1.302,0.694,3.444,2.229,5.05h-0.779c-2.233-0.672-4.996-3.971-4.996-5.554  c0-0.553-0.447-1-1-1s-1,0.447-1,1c0,1.679,1.448,3.925,3.273,5.554h-0.004c-1.675,0-8.442-1.557-8.442-8.746  C28.169,27.824,36.849,27.552,37.218,27.544z M59.477,43.33c0.163,0,0.328-0.04,0.481-0.124c1.907-1.051,3-3.408,3.027-4.636  c0.012-0.552-0.426-1.009-0.979-1.021c-0.007,0-0.015,0-0.021,0c-0.543,0-0.988,0.434-1,0.979c-0.014,0.636-0.8,2.271-1.992,2.927  c-0.483,0.267-0.66,0.875-0.394,1.358C58.782,43.144,59.124,43.33,59.477,43.33z M67.107,61.652  c-0.957-0.698-2.115-0.668-3.025,0.076c-0.427,0.35-0.49,0.979-0.14,1.407c0.349,0.427,0.977,0.489,1.407,0.14  c0.145-0.119,0.316-0.199,0.58-0.008c0.419,0.307,0.702,1.044,0.4,1.809c-0.166,0.421-0.681,0.919-1.421,1.017  c-1.135,0.145-2.408-0.65-3.595-2.251c-1.268-1.709-2.911-2.645-4.753-2.704c-2.458-0.065-4.792,1.384-6.347,2.902  c-1.555-1.519-3.866-2.987-6.348-2.902c-1.841,0.06-3.484,0.995-4.752,2.704c-1.187,1.601-2.468,2.396-3.595,2.251  c-0.74-0.098-1.255-0.596-1.421-1.016c-0.302-0.766-0.019-1.503,0.4-1.81c0.264-0.191,0.436-0.111,0.58,0.008  c0.43,0.351,1.059,0.287,1.407-0.14c0.351-0.428,0.287-1.058-0.14-1.407c-0.91-0.744-2.068-0.775-3.025-0.076  c-1.051,0.766-1.761,2.439-1.084,4.158c0.472,1.195,1.657,2.085,3.021,2.265c1.091,0.147,3.252-0.059,5.464-3.042  c0.903-1.219,1.982-1.856,3.21-1.896c2.02-0.049,4.18,1.437,5.464,2.953c0.189,0.225,0.469,0.354,0.763,0.354h0.111  c0.294,0,0.573-0.129,0.763-0.354c1.285-1.518,3.479-2.978,5.464-2.953c1.227,0.04,2.307,0.678,3.21,1.896  c1.903,2.567,3.77,3.075,4.948,3.075c0.19,0,0.363-0.013,0.516-0.033c1.363-0.18,2.549-1.069,3.021-2.266  C68.868,64.092,68.158,62.418,67.107,61.652z"></path></svg></g><path fill="#004174" fill-rule="nonzero" d="M3.72 2.21Q3.65 1.92 3.65 1.46Q3.65 1.01 3.67 0.86L3.67 0.86Q5.78 0.60 6.82 0.60Q7.85 0.60 8.57 0.84L8.57 0.84Q9.14 5.35 12.58 14.78L12.58 14.78L13.46 14.86Q13.51 15.38 13.51 15.59Q13.51 15.79 13.44 16.20L13.44 16.20Q12.77 16.18 11.35 16.18Q9.94 16.18 9.38 16.20L9.38 16.20Q9.31 15.84 9.31 15.52Q9.31 15.19 9.36 14.86L9.36 14.86L10.20 14.78Q10.08 14.21 9.82 13.12Q9.55 12.02 9.53 11.90L9.53 11.90Q8.16 11.83 6.56 11.83Q4.97 11.83 3.58 11.93L3.58 11.93L2.90 14.78L3.82 14.86Q3.86 15.38 3.86 15.59Q3.86 15.79 3.79 16.20L3.79 16.20Q3.22 16.18 1.91 16.18Q0.60 16.18 0.07 16.20L0.07 16.20Q0 15.84 0 15.52Q0 15.19 0.05 14.86L0.05 14.86L0.89 14.78Q3.77 6.89 4.68 2.28L4.68 2.28L3.72 2.21ZM4.01 10.25L4.01 10.25Q4.82 10.27 6.46 10.27Q8.09 10.27 9.10 10.20L9.10 10.20Q7.97 5.93 6.72 2.30L6.72 2.30L6.58 2.30Q5.16 5.74 4.01 10.25ZM20.76 4.70L20.76 4.70Q24.14 4.70 24.14 10.46L24.14 10.46Q24.14 12.67 23.28 14.47L23.28 14.47Q22.80 15.43 21.84 15.98Q20.88 16.54 19.70 16.54Q18.53 16.54 17.26 15.96L17.26 15.96Q17.38 18.96 17.47 19.80L17.47 19.80L18.36 19.87L18.41 20.50Q18.41 20.98 18.34 21.22L18.34 21.22Q17.76 21.19 16.36 21.19Q14.95 21.19 14.47 21.22L14.47 21.22Q14.40 20.81 14.40 20.50Q14.40 20.18 14.45 19.87L14.45 19.87L15.34 19.80Q15.53 17.18 15.53 12.80Q15.53 8.42 15.34 6.41L15.34 6.41L14.45 6.34Q14.38 6.12 14.38 5.65Q14.38 5.18 14.40 4.99L14.40 4.99Q15.50 4.97 17.35 4.78L17.35 4.78L17.47 4.90Q17.38 5.59 17.35 6.26L17.35 6.26Q19.01 4.70 20.76 4.70ZM19.49 14.81L19.49 14.81Q22.10 14.81 22.10 10.15L22.10 10.15Q22.10 7.32 21.17 6.58L21.17 6.58Q20.74 6.24 20.04 6.24Q19.34 6.24 18.58 6.70Q17.81 7.15 17.28 7.80L17.28 7.80Q17.23 9.79 17.23 14.26L17.23 14.26Q18.62 14.81 19.49 14.81ZM32.62 4.70L32.62 4.70Q36 4.70 36 10.46L36 10.46Q36 12.67 35.14 14.47L35.14 14.47Q34.66 15.43 33.70 15.98Q32.74 16.54 31.56 16.54Q30.38 16.54 29.11 15.96L29.11 15.96Q29.23 18.96 29.33 19.80L29.33 19.80L30.22 19.87L30.26 20.50Q30.26 20.98 30.19 21.22L30.19 21.22Q29.62 21.19 28.21 21.19Q26.81 21.19 26.33 21.22L26.33 21.22Q26.26 20.81 26.26 20.50Q26.26 20.18 26.30 19.87L26.30 19.87L27.19 19.80Q27.38 17.18 27.38 12.80Q27.38 8.42 27.19 6.41L27.19 6.41L26.30 6.34Q26.23 6.12 26.23 5.65Q26.23 5.18 26.26 4.99L26.26 4.99Q27.36 4.97 29.21 4.78L29.21 4.78L29.33 4.90Q29.23 5.59 29.21 6.26L29.21 6.26Q30.86 4.70 32.62 4.70ZM31.34 14.81L31.34 14.81Q33.96 14.81 33.96 10.15L33.96 10.15Q33.96 7.32 33.02 6.58L33.02 6.58Q32.59 6.24 31.90 6.24Q31.20 6.24 30.43 6.70Q29.66 7.15 29.14 7.80L29.14 7.80Q29.09 9.79 29.09 14.26L29.09 14.26Q30.48 14.81 31.34 14.81ZM38.78 11.47L38.78 11.47Q38.64 11.14 38.64 10.73Q38.64 10.32 38.78 9.74L38.78 9.74Q43.32 9.43 44.11 9.24L44.11 9.24Q44.26 9.58 44.26 9.98Q44.26 10.39 44.11 10.97L44.11 10.97Q39.58 11.28 38.78 11.47ZM54.48 7.34L54.55 6.43Q55.08 6.38 55.27 6.38Q55.46 6.38 55.90 6.46L55.90 6.46Q55.87 7.20 55.87 8.38Q55.87 9.55 55.90 9.91L55.90 9.91Q55.54 9.98 55.20 9.98Q54.86 9.98 54.55 9.94L54.55 9.94L54.48 9.10Q53.18 9.05 52.34 9.05Q51.50 9.05 50.21 9.10L50.21 9.10Q50.21 12.24 50.38 14.35L50.38 14.35Q51.22 14.42 52.76 14.42Q54.31 14.42 55.20 14.30L55.20 14.30L55.27 12.67Q55.68 12.60 56.03 12.60Q56.38 12.60 56.62 12.62L56.62 12.62Q56.64 14.50 56.83 16.18L56.83 16.18L56.71 16.30Q55.54 16.18 51.56 16.18Q47.59 16.18 47.38 16.20L47.38 16.20Q47.30 15.84 47.30 15.52Q47.30 15.19 47.35 14.86L47.35 14.86L48.19 14.78Q48.41 11.06 48.41 8.05Q48.41 5.04 48.12 2.23L48.12 2.23L47.30 2.16Q47.26 1.85 47.26 1.51Q47.26 1.18 47.33 0.82L47.33 0.82Q47.93 0.84 51.72 0.84Q55.51 0.84 56.59 0.62L56.59 0.62L56.71 0.74Q56.52 2.86 56.50 4.15L56.50 4.15Q56.26 4.18 55.90 4.18Q55.54 4.18 55.15 4.10L55.15 4.10L55.08 2.47Q53.86 2.40 52.54 2.40Q51.22 2.40 50.35 2.47L50.35 2.47Q50.21 3.98 50.21 7.42L50.21 7.42Q50.59 7.44 51.77 7.44Q52.94 7.44 54.48 7.34L54.48 7.34ZM59.95 12.29L59.95 12.29Q59.95 12.29 60 6.94L60 6.94Q60 6.58 59.98 6.38L59.98 6.38Q58.97 6.38 58.54 6.41L58.54 6.41Q58.39 6.02 58.39 5.65Q58.39 5.28 58.44 5.09L58.44 5.09L59.90 5.09L59.78 3.31Q60.38 3.12 61.04 3.12Q61.70 3.12 62.14 3.22L62.14 3.22L61.92 5.06Q63.24 5.04 64.58 4.92L64.58 4.92Q64.73 5.23 64.73 5.60Q64.73 5.98 64.63 6.50L64.63 6.50Q63.74 6.46 61.82 6.41L61.82 6.41Q61.78 6.89 61.78 7.82L61.78 7.82L61.78 12.70Q61.78 13.32 61.84 13.72Q61.90 14.11 62.15 14.44Q62.40 14.76 62.88 14.76L62.88 14.76Q63.94 14.76 64.90 14.02L64.90 14.02Q65.40 14.74 65.40 15.96L65.40 15.96Q64.08 16.54 63.11 16.54Q62.14 16.54 61.56 16.28Q60.98 16.03 60.67 15.68Q60.36 15.34 60.19 14.71L60.19 14.71Q59.95 13.82 59.95 12.29ZM66.86 14.86L67.70 14.78Q67.92 12.43 67.92 10.48Q67.92 8.52 67.73 6.41L67.73 6.41L66.84 6.34Q66.77 5.93 66.77 5.56Q66.77 5.18 66.79 4.99L66.79 4.99Q68.18 4.94 69.77 4.78L69.77 4.78L69.89 4.90Q69.67 6.31 69.67 9.65Q69.67 12.98 69.89 14.78L69.89 14.78L70.78 14.86Q70.82 15.24 70.82 15.52Q70.82 15.79 70.75 16.20L70.75 16.20Q69.91 16.18 68.81 16.18Q67.70 16.18 66.89 16.20L66.89 16.20Q66.82 15.84 66.82 15.46Q66.82 15.07 66.86 14.86L66.86 14.86ZM70.13 1.46L70.13 1.46Q70.13 2.95 68.59 2.95L68.59 2.95Q67.39 2.95 67.39 1.73L67.39 1.73Q67.39 0.22 68.93 0.22L68.93 0.22Q70.13 0.22 70.13 1.46ZM73.63 12.29L73.63 12.29Q73.63 12.29 73.68 6.94L73.68 6.94Q73.68 6.58 73.66 6.38L73.66 6.38Q72.65 6.38 72.22 6.41L72.22 6.41Q72.07 6.02 72.07 5.65Q72.07 5.28 72.12 5.09L72.12 5.09L73.58 5.09L73.46 3.31Q74.06 3.12 74.72 3.12Q75.38 3.12 75.82 3.22L75.82 3.22L75.60 5.06Q76.92 5.04 78.26 4.92L78.26 4.92Q78.41 5.23 78.41 5.60Q78.41 5.98 78.31 6.50L78.31 6.50Q77.42 6.46 75.50 6.41L75.50 6.41Q75.46 6.89 75.46 7.82L75.46 7.82L75.46 12.70Q75.46 13.32 75.52 13.72Q75.58 14.11 75.83 14.44Q76.08 14.76 76.56 14.76L76.56 14.76Q77.62 14.76 78.58 14.02L78.58 14.02Q79.08 14.74 79.08 15.96L79.08 15.96Q77.76 16.54 76.79 16.54Q75.82 16.54 75.24 16.28Q74.66 16.03 74.35 15.68Q74.04 15.34 73.87 14.71L73.87 14.71Q73.63 13.82 73.63 12.29ZM84.43 10.85L84.43 10.85Q83.26 10.85 82.25 10.73L82.25 10.73Q82.30 14.81 84.96 14.81L84.96 14.81Q86.30 14.81 87.94 13.32L87.94 13.32Q88.63 14.04 88.82 15.22L88.82 15.22Q86.86 16.54 84.65 16.54Q82.44 16.54 81.36 15.01Q80.28 13.49 80.28 10.54Q80.28 7.58 81.49 6.14Q82.70 4.70 84.94 4.70L84.94 4.70Q86.59 4.70 87.67 5.71Q88.75 6.72 88.76 8.18Q88.78 9.65 88.51 10.27L88.51 10.27Q86.71 10.85 84.43 10.85ZM84.77 6.05L84.77 6.05Q82.54 6.05 82.27 9.34L82.27 9.34Q83.35 9.46 84.65 9.46Q85.94 9.46 86.66 9.22L86.66 9.22Q86.76 8.62 86.76 8.33L86.76 8.33Q86.76 7.27 86.22 6.66Q85.68 6.05 84.77 6.05ZM92.93 7.18L92.93 7.18Q92.93 2.76 92.30 0.26L92.30 0.26Q93.02 0 93.70 0Q94.37 0 94.94 0.14L94.94 0.14Q94.46 4.68 94.46 10.30L94.46 10.30Q94.46 11.09 94.51 11.86L94.51 11.86Q94.06 12.00 93.70 12.00Q93.34 12.00 92.88 11.86L92.88 11.86Q92.93 9.31 92.93 7.18ZM95.30 14.86L95.30 14.86Q95.30 15.58 94.87 16.06Q94.44 16.54 93.55 16.54L93.55 16.54Q92.18 16.54 92.18 15.14L92.18 15.14Q92.18 13.42 93.94 13.42L93.94 13.42Q95.30 13.42 95.30 14.86Z" transform="translate(0, 52)"></path></svg>